<svg width="24" height="24" viewBox="0 0 24 24" fill="none" xmlns="http://www.w3.org/2000/svg">
<g clip-path="url(#clip0_2455_3329)">
<path fill-rule="evenodd" clip-rule="evenodd" d="M5.22773 8.23465C5.08161 8.38665 5 8.58931 5 8.80015C5 9.01099 5.08161 9.21365 5.22773 9.36565L11.4497 15.7656C11.5209 15.8397 11.6063 15.8986 11.7008 15.9388C11.7953 15.9791 11.897 15.9998 11.9997 15.9998C12.1024 15.9998 12.2041 15.9791 12.2986 15.9388C12.3931 15.8986 12.4785 15.8397 12.5497 15.7656L18.7717 9.36565C18.9178 9.21365 18.9995 9.01099 18.9995 8.80015C18.9995 8.58931 18.9178 8.38665 18.7717 8.23465C18.7005 8.16061 18.6151 8.1017 18.5206 8.06147C18.4261 8.02123 18.3244 8.00049 18.2217 8.00049C18.119 8.00049 18.0173 8.02123 17.9228 8.06147C17.8283 8.1017 17.7429 8.16061 17.6717 8.23465L11.9997 14.0687L6.32773 8.23465C6.25653 8.16061 6.17112 8.1017 6.07661 8.06147C5.9821 8.02123 5.88044 8.00049 5.77773 8.00049C5.67501 8.00049 5.57335 8.02123 5.47884 8.06147C5.38433 8.1017 5.29892 8.16061 5.22773 8.23465Z" fill="#6D6F73"/>
</g>
<defs>
<clipPath id="clip0_2455_3329">
<rect width="24" height="24" fill="white"/>
</clipPath>
</defs>
</svg>
