<svg width="8" height="8" viewBox="0 0 8 8" fill="none" xmlns="http://www.w3.org/2000/svg">
<g clip-path="url(#clip0_5739_881)">
<path fill-rule="evenodd" clip-rule="evenodd" d="M2.61006 1.60704C2.68151 1.53836 2.77676 1.5 2.87586 1.5C2.97496 1.5 3.07022 1.53836 3.14166 1.60704L5.38994 3.74149C5.42474 3.77496 5.45243 3.8151 5.47134 3.85952C5.49025 3.90394 5.5 3.95173 5.5 4.00001C5.5 4.04829 5.49025 4.09607 5.47134 4.14049C5.45243 4.18491 5.42474 4.22506 5.38994 4.25852L3.1417 6.393C3.07025 6.46168 2.975 6.50004 2.8759 6.50004C2.7768 6.50004 2.68154 6.46168 2.6101 6.393C2.57529 6.35954 2.54761 6.31939 2.52869 6.27497C2.50978 6.23055 2.50003 6.18277 2.50003 6.13449C2.50003 6.08621 2.50978 6.03843 2.52869 5.994C2.54761 5.94958 2.57529 5.90944 2.6101 5.87597L4.5923 4.00001L2.61006 2.12407C2.57526 2.0906 2.54757 2.05046 2.52866 2.00604C2.50975 1.96161 2.5 1.91383 2.5 1.86555C2.5 1.81727 2.50975 1.76949 2.52866 1.72507C2.54757 1.68065 2.57526 1.6405 2.61006 1.60704Z" fill="#00A296"/>
</g>
<defs>
<clipPath id="clip0_5739_881">
<rect width="8" height="8" fill="white"/>
</clipPath>
</defs>
</svg>
