<svg width="18" height="18" viewBox="0 0 18 18" fill="none" xmlns="http://www.w3.org/2000/svg">
<g clip-path="url(#clip0_5701_809)">
<path d="M13.6794 15.2761C13.3794 14.8801 13.1943 14.4093 13.1443 13.9151C13.0839 13.1689 13.3863 12.4215 14.0423 11.6927C14.1422 10.9171 13.8975 7.93096 13.8975 7.93096H2.49091C2.49091 7.93096 2.6058 14.5812 2.49091 14.4405C1.11077 12.7332 0.457397 10.5516 0.671853 8.36667C0.886309 6.18176 1.9514 4.16884 3.63716 2.76243C5.32293 1.35602 7.49416 0.668991 9.68212 0.849592C11.8701 1.03019 13.8993 2.06394 15.3316 3.72773C18.3125 7.18851 17.4563 12.9344 14.0423 15.9686C13.968 16.0415 13.8143 15.4615 13.6794 15.2761Z" fill="#EECFFC"/>
<path d="M2.48438 7.2269V13.2889L4.24895 15.7694L5.11863 15.9226L6.48267 15.5299L8.6225 16.2303L10.6874 15.5299L13.3273 17.2023L14.197 15.7699C14.197 15.7699 11.9974 14.005 14.0946 11.6775C14.197 10.8848 14.0086 7.76275 14.0086 7.76275L2.48438 7.2269Z" fill="white"/>
<path d="M12.0262 17.0593C11.501 16.5467 10.934 16.0353 10.2772 16.1368C9.52269 16.247 9.48975 17.0331 8.67962 17.0915C8.47512 17.0923 8.27256 17.0517 8.08419 16.972C7.89581 16.8924 7.72552 16.7755 7.5836 16.6282C7.2605 16.3634 6.95341 16.0979 6.48733 16.1757C5.84979 16.2842 5.51494 16.9341 4.71873 16.8339C4.61173 16.8222 4.50664 16.797 4.40597 16.7589C4.26961 16.7101 4.14053 16.643 4.02228 16.5594C3.48743 16.0954 3.05786 15.5226 2.76235 14.8791C2.72539 14.9454 2.67274 15.0016 2.60902 15.0428C2.5453 15.0839 2.47245 15.1088 2.39686 15.1153C2.32097 15.1219 2.24463 15.1095 2.17482 15.079C2.10501 15.0485 2.04395 15.001 1.99722 14.9408C-1.08991 11.0412 -0.538165 5.33745 3.23679 2.12777C7.01175 -1.08191 12.6134 -0.607944 15.8205 3.18788C19.027 6.98677 18.6528 12.7073 14.9794 16.0374C14.8992 16.1168 14.8129 16.1896 14.7211 16.2551C14.6605 16.3872 14.5935 16.5214 14.5187 16.6675C14.0947 17.4609 13.8862 17.8593 13.5677 17.968C13.5071 17.9882 13.4439 17.9988 13.3801 17.9994C12.946 18.0165 12.5055 17.5562 12.0262 17.0593ZM11.573 15.3404C12.1355 15.7396 13.2321 16.7447 13.2321 16.7447C13.4404 16.7085 13.6975 16.4263 13.6543 16.3916C13.167 15.9974 12.7926 15.0429 12.7926 14.0389C12.7926 12.8762 13.177 11.9708 13.7556 11.6557V8.33284C13.7557 8.30168 13.7515 8.27063 13.7432 8.24059H2.84105C2.83353 8.27082 2.82902 8.30173 2.82758 8.33284V12.765C3.18195 13.6932 3.66015 14.5693 4.2492 15.3693C4.32426 15.4667 4.4164 15.5495 4.52111 15.6139C4.5452 15.6279 4.57024 15.6401 4.59605 15.6505C4.71428 15.7014 4.84241 15.7254 4.97105 15.7204C5.17386 15.6979 5.36862 15.6284 5.53984 15.5174C5.89773 15.2234 6.35229 15.0732 6.8149 15.0961C7.69358 15.1866 7.88526 16.0613 8.58152 16.0139C9.22473 15.9688 9.5066 15.3764 10.278 15.1158C10.6876 15.0105 11.0953 15.0105 11.5735 15.3404H11.573ZM14.1408 7.3125C14.3095 7.42436 14.4473 7.57676 14.5418 7.7557C14.6362 7.93464 14.6843 8.13439 14.6815 8.33671V12.0124C14.682 12.074 14.6704 12.1351 14.6473 12.1922C14.6243 12.2493 14.5902 12.3013 14.547 12.3452C14.5039 12.3891 14.4525 12.4241 14.3958 12.4482C14.3391 12.4722 14.2782 12.4849 14.2167 12.4854C14.2009 12.4854 14.0833 12.5443 13.9543 12.8143C13.7906 13.2023 13.7107 13.6205 13.7199 14.0415C13.6841 14.5661 13.8242 15.0878 14.1181 15.5238C14.2104 15.4809 14.2923 15.4183 14.3578 15.3403H14.3556C17.5139 12.4907 17.989 7.64165 15.4457 4.21252C12.9025 0.782186 8.19835 -0.0723262 4.64979 2.25076C1.10124 4.57384 -0.0955703 9.29118 1.90307 13.0779V8.33459C1.90207 8.30314 1.90303 8.27162 1.90594 8.24028L1.53573 8.24159C1.53573 6.55285 2.64745 5.18742 6.2629 5.18742C9.17877 5.20485 12.8388 6.08554 14.1409 7.30833L14.1408 7.3125ZM9.6718 10.8299C9.6718 9.97615 10.0333 9.29347 10.4837 9.29347C10.9341 9.29347 11.2944 9.97889 11.2944 10.8299C11.2944 11.6788 10.9329 12.3645 10.4837 12.3645C10.0345 12.3645 9.67046 11.7053 9.67046 10.8259L9.6718 10.8299ZM4.13922 10.8299C4.13922 9.97615 4.50088 9.29347 4.9512 9.29347C5.40152 9.29347 5.76184 9.97889 5.76184 10.8299C5.76184 11.6788 5.39916 12.3645 4.9512 12.3645C4.50324 12.3645 4.13769 11.7053 4.13769 10.8259L4.13922 10.8299Z" fill="#7B1FA2"/>
</g>
<defs>
<clipPath id="clip0_5701_809">
<rect width="18" height="18.0006" fill="white" transform="translate(0 -0.000671387)"/>
</clipPath>
</defs>
</svg>
