<svg width="16" height="16" viewBox="0 0 16 16" fill="none" xmlns="http://www.w3.org/2000/svg">
<g clip-path="url(#clip0_5739_531)">
<path d="M12.861 3.13865C12.5579 2.83674 12.1475 2.66724 11.7197 2.66724C11.2918 2.66724 10.8814 2.83674 10.5783 3.13865L3.32033 10.3987C3.11292 10.605 2.94841 10.8504 2.83628 11.1207C2.72415 11.3909 2.66661 11.6807 2.66699 11.9733V12.8893C2.66752 13.0069 2.71461 13.1195 2.79794 13.2025C2.88127 13.2854 2.99407 13.332 3.11166 13.332H4.02699C4.31995 13.3328 4.61015 13.2754 4.88079 13.1633C5.15143 13.0511 5.39713 12.8864 5.60366 12.6787L12.859 5.42265C13.1616 5.11922 13.3315 4.70818 13.3315 4.27965C13.3315 3.85112 13.1616 3.44008 12.859 3.13665L12.861 3.13865ZM4.97833 12.0507C4.72683 12.3007 4.38695 12.4415 4.03233 12.4427H3.55566V11.976C3.55543 11.8002 3.58995 11.6262 3.65722 11.4639C3.7245 11.3015 3.8232 11.1541 3.94766 11.03L9.45699 5.52399L10.483 6.54732L4.97833 12.0507ZM12.233 4.79332L11.1117 5.91199L10.0857 4.88799L11.2003 3.76865C11.3364 3.63286 11.5208 3.55668 11.713 3.55687C11.9053 3.55706 12.0895 3.6336 12.2253 3.76965C12.3611 3.90571 12.4373 4.09013 12.4371 4.28236C12.4369 4.47458 12.3604 4.65886 12.2243 4.79465L12.233 4.79332Z" fill="#00A296"/>
</g>
<defs>
<clipPath id="clip0_5739_531">
<rect width="16" height="16" fill="white"/>
</clipPath>
</defs>
</svg>
