<svg width="24" height="24" viewBox="0 0 24 24" fill="none" xmlns="http://www.w3.org/2000/svg">
<g clip-path="url(#clip0_5739_947)">
<path d="M10 10.5001C10.1989 10.5001 10.3897 10.5791 10.5303 10.7197C10.671 10.8604 10.75 11.0511 10.75 11.2501V14.7501C10.75 14.949 10.671 15.1397 10.5303 15.2804C10.3897 15.421 10.1989 15.5001 10 15.5001C9.80109 15.5001 9.61032 15.421 9.46967 15.2804C9.32902 15.1397 9.25 14.949 9.25 14.7501V11.2501C9.25 11.0511 9.32902 10.8604 9.46967 10.7197C9.61032 10.5791 9.80109 10.5001 10 10.5001Z" fill="#00A296"/>
<path d="M14 10.5001C14.1989 10.5001 14.3897 10.5791 14.5303 10.7197C14.671 10.8604 14.75 11.0511 14.75 11.2501V14.7501C14.75 14.949 14.671 15.1397 14.5303 15.2804C14.3897 15.421 14.1989 15.5001 14 15.5001C13.8011 15.5001 13.6103 15.421 13.4697 15.2804C13.329 15.1397 13.25 14.949 13.25 14.7501V11.2501C13.25 11.0511 13.329 10.8604 13.4697 10.7197C13.6103 10.5791 13.8011 10.5001 14 10.5001Z" fill="#00A296"/>
<path fill-rule="evenodd" clip-rule="evenodd" d="M8.52488 3.82939C7.81448 4.37237 7.3045 5.13588 7.075 6.00007H4.75C4.55109 6.00007 4.36032 6.07909 4.21967 6.21974C4.07902 6.36039 4 6.55116 4 6.75007C4 6.94899 4.07902 7.13975 4.21967 7.2804C4.36032 7.42105 4.55109 7.50007 4.75 7.50007H5.5V16.2501C5.5 17.2446 5.89509 18.1985 6.59835 18.9017C7.30161 19.605 8.25544 20.0001 9.25 20.0001H14.75C15.2425 20.0001 15.7301 19.9031 16.1851 19.7146C16.64 19.5262 17.0534 19.2499 17.4017 18.9017C17.7499 18.5535 18.0261 18.1401 18.2145 17.6851C18.403 17.2302 18.5 16.7425 18.5 16.2501V7.50007H19.25C19.4489 7.50007 19.6397 7.42105 19.7803 7.2804C19.921 7.13975 20 6.94899 20 6.75007C20 6.55116 19.921 6.36039 19.7803 6.21974C19.6397 6.07909 19.4489 6.00007 19.25 6.00007H16.675C16.5019 5.15314 16.0416 4.39197 15.372 3.84532C14.7023 3.29867 13.8644 3.00008 13 3.00007H11C10.1059 2.99471 9.23528 3.28641 8.52488 3.82939ZM9.69891 4.91208C9.3183 5.18074 9.03043 5.56088 8.875 6.00007H15.122C14.9667 5.56137 14.6793 5.18157 14.2993 4.91294C13.9193 4.64432 13.4654 4.50008 13 4.50007H11C10.5341 4.49946 10.0795 4.64341 9.69891 4.91208ZM17 7.50007H7V16.2501C7 16.8468 7.23705 17.4191 7.65901 17.8411C8.08097 18.263 8.65326 18.5001 9.25 18.5001H14.75C15.3467 18.5001 15.919 18.263 16.341 17.8411C16.7629 17.4191 17 16.8468 17 16.2501V7.50007Z" fill="#00A296"/>
</g>
<defs>
<clipPath id="clip0_5739_947">
<rect width="24" height="24" rx="12" fill="white"/>
</clipPath>
</defs>
</svg>
